<svg width="50" height="50" viewBox="0 0 50 50" fill="none" xmlns="http://www.w3.org/2000/svg">
<circle cx="25" cy="25" r="25" fill="#ED4FF0"/>
<path fill-rule="evenodd" clip-rule="evenodd" d="M32.9472 18.7154L33.5776 20.2914C34.3424 20.461 35.1024 20.6546 35.8576 20.8706C36.5344 21.0626 37 21.6818 37 22.3842V27.7362C37 29.3445 36.3611 30.8869 35.2239 32.0241C34.0867 33.1613 32.5443 33.8002 30.936 33.8002H30.0688C29.8439 33.8001 29.6231 33.7394 29.4297 33.6246C29.2363 33.5097 29.0773 33.3449 28.9696 33.1474C27.256 30.0066 22.7456 30.0066 21.0304 33.1474C20.9227 33.3449 20.7637 33.5097 20.5703 33.6246C20.3769 33.7394 20.1561 33.8001 19.9312 33.8002H19.064C17.4557 33.8002 15.9133 33.1613 14.7761 32.0241C13.6389 30.8869 13 29.3445 13 27.7362V22.3842C13 21.6802 13.4656 21.0642 14.1424 20.8706C14.8976 20.6546 15.6576 20.461 16.4224 20.2914L17.0528 18.7154C17.3496 17.973 17.862 17.3367 18.5239 16.8883C19.1858 16.44 19.9669 16.2003 20.7664 16.2002H29.2336C30.0331 16.2003 30.8142 16.44 31.4761 16.8883C32.138 17.3367 32.6504 17.973 32.9472 18.7154V18.7154ZM18.5376 19.3074C18.716 18.8622 19.0237 18.4807 19.4209 18.2121C19.8182 17.9435 20.2868 17.8 20.7664 17.8002H29.2336C29.7134 17.8001 30.1821 17.9438 30.5794 18.2128C30.9767 18.4817 31.2843 18.8635 31.4624 19.309L31.7072 19.9234C27.2684 19.1591 22.7316 19.1591 18.2928 19.9234L18.5376 19.309V19.3074Z" fill="white"/>
</svg>
