<svg width="2264" height="1376" viewBox="0 0 2264 1376" fill="none" xmlns="http://www.w3.org/2000/svg">
<path d="M1671.46 60.6543C1645.63 -6.53078 1517.88 -39.708 1538.96 94.0634C1542.42 115.997 1542.77 153.766 1538.96 199.738C1535.48 241.851 1467.26 264.894 1446.31 319.308C1413.47 404.646 1536.27 464.128 1516.73 508.988C1491.13 567.744 1412.76 593.237 1369.41 625.383C1328.6 655.644 1302.61 704.2 1292.63 754.121C1275.12 841.701 1306.9 933.482 1394.43 938.048C1438.25 940.334 1496.04 920.764 1568.61 867.871C1601.06 844.223 1629.67 824.734 1655.1 808.975C1720.55 768.415 1702.96 864.356 1780.78 867.871C1825.13 869.875 1871.45 787.048 1906.51 831.229C1931.44 862.643 1960.05 900.76 2000.9 939.947C2072.65 1008.77 2162.36 1018.9 2175.05 920.68C2181.04 874.315 2169.87 803.804 2131.54 703.925C2107.01 640.008 2168.02 642.261 2175.05 560.353C2182.08 478.446 2124.6 440.673 2166.21 406.773L2167.05 406.094C2198.76 380.258 2232.59 352.703 2251.06 299.777C2266.97 254.187 2265.45 209.033 2251.06 174.337C2235.66 137.204 2205.51 112.05 2166.21 111.157C2126.78 110.262 2078.13 133.793 2025.92 194.16C1991.49 233.961 1968.18 141.35 1906.51 150.817C1844.83 160.284 1836.26 249.642 1799.31 223.725C1735.13 178.704 1701.7 139.34 1671.46 60.6543Z" stroke="url(#paint0_radial_3673_5636)" stroke-width="3"/>
<path d="M1796.03 427.134C1792.1 416.82 1773.79 419.527 1772.86 430.705C1771.81 443.432 1778.24 460.017 1777.49 472.775C1776.06 497.406 1767.36 504.418 1750.03 517.4C1743.82 522.046 1739.86 529.5 1738.35 537.164C1735.68 550.609 1740.52 564.699 1753.84 565.4C1760.51 565.751 1769.3 562.746 1780.35 554.627C1785.28 550.996 1789.64 548.004 1793.51 545.585C1810.36 534.21 1826.03 543.123 1831.77 549.001C1835.56 553.824 1839.92 559.675 1846.13 565.691C1857.05 576.256 1873.59 574.872 1872.64 562.733C1871.29 545.585 1842.01 481.574 1872.64 470.413C1886.86 465.228 1886.39 453.484 1884.2 448.157C1881.86 442.457 1877.27 438.595 1871.29 438.458C1865.29 438.321 1855.35 448.157 1849.94 451.201C1829.98 462.435 1812.16 468.242 1796.03 427.134Z" stroke="url(#paint1_radial_3673_5636)" stroke-width="3"/>
<path d="M1560.33 123.331C1541.62 1.55228 1658.36 31.9092 1682.03 93.5008C1711.02 168.8 1743.06 204.09 1803.27 244.037C1837.13 267.48 1845.28 185.89 1901.76 177.022C1958.23 168.154 1979.8 252.194 2011.4 215.989C2059.45 161.078 2104.13 140.017 2140.22 141.346C2176.08 142.398 2203.57 165.67 2217.46 199.837C2230.43 231.788 2231.5 273.252 2216.37 314.964C2196.63 364.546 2168.12 395.408 2139.17 420.642C2101.35 452.032 2153.3 486.704 2146.41 561.273C2139.53 635.843 2083.39 633.586 2105.21 691.262C2139.52 781.592 2149.29 845.215 2143.49 886.964C2131.69 976.061 2049.58 966.508 1983.68 903.756C1945.89 867.963 1919.12 833.34 1895.67 805.271C1863.42 765.294 1820.88 840.921 1780.08 839.426C1708.77 836.593 1724.33 749.556 1664.37 786.613C1640.83 801.106 1614.45 818.898 1584.62 840.398C1517.38 888.457 1464.35 904.991 1424.73 901.698C1345.15 897.198 1316.36 813.353 1332.47 733.364C1341.73 687.638 1365.61 643.188 1403.03 615.446C1444.05 585.028 1516.15 561.201 1539.56 505.521C1557.38 464.131 1445.52 409.352 1475.27 331.048C1494.2 280.879 1556.16 259.253 1559.38 220.364C1562.88 178.033 1563 143.358 1560.33 123.331Z" stroke="url(#paint2_radial_3673_5636)" stroke-width="3"/>
<path d="M1582.64 153.831C1566.33 44.445 1671.89 71.8816 1693.38 127.677C1721.07 199.335 1751.67 230.436 1807.83 265.181C1838.56 286.072 1846.27 212.518 1897.46 204.279C1948.64 196.04 1968.45 271.234 1997.17 238.743C2040.99 189.469 2081.64 170.947 2114.33 172.704C2146.7 173.912 2171.49 195.223 2183.84 226.312C2195.37 255.412 2195.99 293.049 2181.67 330.747C2160.85 376.357 2138.14 410.395 2112.23 434.742C2078.26 463.519 2124.6 494.975 2117.87 561.962C2111.14 628.95 2059.96 626.697 2079.04 677.944C2109.27 758.429 2117.63 814.958 2112.04 851.954C2101.13 931.637 2026.74 922.696 1966.79 866.217C1932.12 833.937 1907.23 802.92 1885.3 778.289C1855.9 742.644 1817.2 810.823 1780.01 809.841C1715.31 807.7 1728.81 729.85 1674.44 763.284C1652.83 776.463 1628.71 792.499 1601.55 811.78C1539.73 854.848 1491.55 868.294 1456.17 864.007C1384.67 859.589 1358.92 783.956 1373.6 711.821C1382.13 670.44 1403.86 630.242 1437.82 605.111C1476.45 576.523 1542.17 554.442 1563.38 502.025C1579.44 464.241 1478.68 414.345 1505.31 343.334C1522.2 297.577 1577.79 277.44 1580.74 241.903C1583.94 203.354 1584.53 171.885 1582.64 153.831Z" stroke="url(#paint3_radial_3673_5636)" stroke-width="3"/>
<path d="M1604 183.1C1590.06 85.7072 1684.61 110.323 1703.95 160.525C1730.38 228.794 1759.59 255.822 1811.78 285.493C1839.42 303.91 1846.71 238.124 1892.69 230.484C1938.67 222.844 1956.74 289.468 1982.62 260.572C2022.28 216.754 2058.96 200.703 2088.31 202.894C2117.23 204.261 2139.37 223.689 2150.2 251.813C2160.31 278.167 2160.47 312.113 2146.94 345.934C2125.01 387.735 2108.06 425.06 2085.16 448.606C2054.98 474.874 2095.78 503.228 2089.19 562.878C2082.6 622.528 2036.3 620.271 2052.67 665.277C2078.89 736.212 2085.83 785.854 2080.44 818.234C2070.41 888.794 2003.62 880.434 1949.53 830.022C1917.94 801.137 1894.89 773.613 1874.43 752.328C1847.84 720.886 1812.92 781.865 1779.28 781.391C1721.1 779.933 1732.56 710.987 1683.69 740.918C1663.97 752.831 1642.08 767.169 1617.54 784.301C1561.05 822.537 1517.65 832.947 1486.46 827.654C1422.93 823.301 1400.16 755.604 1413.45 691.061C1421.25 653.875 1440.87 617.784 1471.44 595.172C1507.74 568.312 1567.18 547.897 1586.21 498.557C1600.55 464.244 1510.73 419.051 1534.27 355.074C1549.14 313.563 1598.46 294.843 1601.14 262.53C1604.04 227.622 1605.1 199.247 1604 183.1Z" stroke="url(#paint4_radial_3673_5636)" stroke-width="3"/>
<path d="M1626.3 212.368C1614.76 126.972 1698.13 148.767 1715.28 193.373C1740.41 258.26 1768.18 281.212 1816.3 305.806C1840.81 321.747 1847.67 263.732 1888.36 256.691C1929.05 249.649 1945.35 307.699 1968.36 282.401C2003.78 244.041 2036.42 230.462 2062.38 233.087C2087.8 234.615 2107.24 252.158 2116.54 277.317C2125.2 300.925 2124.92 331.181 2112.2 361.123C2089.2 399.117 2078.03 439.741 2058.17 462.489C2031.85 486.246 2067.04 511.499 2060.6 563.808C2054.17 616.118 2012.83 613.857 2026.46 652.62C2048.6 714 2054.13 756.753 2048.94 784.514C2039.82 845.947 1980.75 838.167 1932.61 793.824C1904.14 768.335 1882.97 744.305 1864.03 726.368C1840.3 699.131 1809.22 752.908 1779.19 752.943C1727.63 752.17 1737.03 692.129 1693.75 718.557C1675.95 729.205 1656.33 741.844 1634.45 756.827C1583.4 790.228 1544.84 797.599 1517.91 791.296C1462.45 787.009 1442.72 727.25 1454.58 670.3C1461.64 637.311 1479.12 605.326 1506.23 585.235C1540.14 560.101 1593.2 541.352 1610.02 495.086C1622.6 464.243 1543.89 423.753 1564.3 366.812C1577.13 329.547 1620.08 312.243 1622.5 283.154C1625.09 251.889 1626.61 226.606 1626.3 212.368Z" stroke="url(#paint5_radial_3673_5636)" stroke-width="3"/>
<path d="M1648.6 243.013C1639.46 169.805 1711.64 188.73 1726.61 227.642C1750.43 288.999 1776.75 307.824 1820.81 327.287C1842.19 340.717 1848.6 290.601 1884.01 284.175C1919.41 277.749 1933.93 327.095 1954.06 305.45C1985.25 272.634 2013.86 261.557 2036.42 264.61C2058.35 266.295 2075.09 281.916 2082.85 304.052C2090.07 324.861 2089.34 351.358 2077.43 377.355C2053.36 411.456 2047.98 455.285 2031.17 477.182C2008.7 498.377 2038.27 520.471 2031.99 565.324C2025.72 610.177 1989.33 607.917 2000.23 640.35C2018.3 692.039 2022.41 727.807 2017.43 750.888C2009.21 803.058 1957.86 795.875 1915.68 757.7C1890.34 735.664 1871.05 715.182 1853.63 700.633C1832.75 677.66 1805.52 724.116 1779.1 724.659C1734.16 724.572 1741.5 673.572 1703.81 696.437C1687.94 705.795 1670.58 716.708 1651.38 729.508C1605.76 757.999 1572.05 762.315 1549.37 755.019C1501.99 750.807 1485.28 699.12 1495.72 649.89C1502.05 621.171 1517.38 593.364 1541.04 575.838C1572.54 552.487 1619.22 535.447 1633.83 492.359C1644.66 465.056 1577.05 429.359 1594.33 379.582C1605.12 346.646 1641.71 330.798 1643.85 304.998C1646.14 277.445 1648.13 255.312 1648.6 243.013Z" stroke="url(#paint6_radial_3673_5636)" stroke-width="3"/>
<path d="M1669.94 272.281C1663.18 211.076 1724.32 227.179 1737.14 260.494C1759.7 318.475 1784.63 333.22 1824.71 347.601C1843 358.554 1848.99 316.212 1879.18 310.384C1909.37 304.557 1922.14 345.325 1939.44 327.278C1966.45 299.923 1991.09 291.32 2010.3 294.809C2028.78 296.654 2042.85 310.392 2049.1 329.562C2054.89 347.625 2053.71 370.429 2042.59 392.546C2017.4 422.84 2017.79 469.981 2003.99 491.083C1985.32 509.768 2009.34 528.759 2003.21 566.268C1997.08 603.777 1965.58 601.513 1973.76 627.698C1987.8 669.827 1990.51 698.7 1985.71 717.159C1978.38 760.197 1934.65 753.593 1898.33 721.491C1876.07 702.852 1858.62 685.866 1842.68 674.668C1824.62 655.902 1801.18 695.153 1778.31 696.206C1739.9 696.804 1745.19 654.716 1713.01 674.076C1699.04 682.168 1683.92 691.382 1667.34 702.032C1627.06 725.685 1598.13 726.958 1579.65 718.649C1540.25 714.502 1526.54 670.757 1535.57 629.124C1541.18 604.602 1554.39 580.904 1574.65 565.898C1603.82 544.272 1644.22 528.897 1656.64 488.881C1665.74 465.049 1609.1 434.056 1623.29 391.317C1632.06 362.628 1662.36 348.195 1664.23 325.62C1666.21 301.709 1668.68 282.672 1669.94 272.281Z" stroke="url(#paint7_radial_3673_5636)" stroke-width="3"/>
<path d="M1692.2 301.547C1687.84 252.354 1737.79 265.633 1748.42 293.349C1769.66 347.966 1793.13 358.626 1829.13 367.918C1844.28 376.391 1849.83 341.827 1874.72 336.598C1899.62 331.368 1910.62 363.55 1925.03 349.104C1947.8 327.215 1968.39 321.089 1984.21 325.017C1999.18 327.024 2010.56 338.878 2015.27 355.08C2019.62 370.396 2017.99 389.507 2007.68 407.742C1981.45 434.229 1987.61 484.709 1976.86 505.02C1962.04 521.196 1980.45 537.082 1974.48 567.242C1968.5 597.402 1941.98 595.132 1947.42 615.062C1957.39 647.62 1958.68 669.591 1954.09 683.423C1947.66 717.321 1911.67 711.296 1881.31 685.27C1862.19 670.031 1846.62 656.544 1832.21 648.701C1817.01 634.147 1797.42 666.189 1778.17 667.753C1746.38 669.038 1749.62 635.87 1723.04 651.723C1711 658.548 1698.15 666.062 1684.24 674.56C1649.4 693.371 1625.33 691.593 1611.11 682.267C1579.79 678.183 1569.11 642.384 1576.72 608.353C1581.59 588.031 1592.65 568.443 1609.45 555.96C1636.21 536.055 1670.21 522.345 1680.42 485.393C1687.76 465.032 1642.24 438.745 1653.29 403.047C1660.02 378.606 1683.96 365.587 1685.56 346.236C1687.23 325.97 1690.16 310.028 1692.2 301.547Z" stroke="url(#paint8_radial_3673_5636)" stroke-width="3"/>
<path d="M1713.85 330.811C1711.87 293.646 1750.89 304.098 1759.39 326.21C1779.43 377.48 1801.58 384.047 1833.71 388.235C1845.79 394.225 1850.94 367.449 1870.67 362.817C1890.41 358.185 1899.69 381.767 1911.3 370.928C1929.96 354.512 1946.62 350.868 1959.12 355.238C1970.68 357.409 1979.41 367.378 1982.61 380.612C1985.54 393.179 1983.45 408.594 1973.9 422.942C1946.46 445.624 1958.45 499.481 1950.68 519.011C1939.64 532.677 1952.53 545.457 1946.68 568.257C1940.83 591.058 1919.13 588.781 1921.86 602.445C1927.81 625.418 1927.69 640.474 1923.28 649.669C1917.72 674.413 1889.26 668.966 1864.71 649.023C1848.61 637.187 1834.84 627.205 1821.88 622.725C1809.46 612.389 1793.6 637.213 1777.86 639.292C1752.54 641.268 1753.73 617.032 1732.6 629.375L1732.02 629.693C1722.02 635.154 1711.56 640.865 1700.46 647.087C1670.88 661.05 1651.53 656.209 1641.49 645.856C1618.08 641.834 1610.39 613.991 1616.6 587.569C1620.76 571.45 1629.73 555.978 1643.16 546.018C1667.67 527.831 1695.47 515.783 1703.52 481.887C1709.14 464.999 1674.49 443.418 1682.47 414.767C1687.19 394.576 1704.88 382.969 1706.22 366.844C1707.6 350.223 1711.02 337.379 1713.85 330.811Z" stroke="url(#paint9_radial_3673_5636)" stroke-width="3"/>
<path d="M1736.07 361.494C1736.48 336.521 1764.26 344.1 1770.57 360.51C1789.27 408.201 1809.93 410.647 1837.94 409.716C1846.87 413.196 1851.57 394.325 1865.99 390.311C1880.41 386.297 1887.91 401.177 1896.63 393.992C1911.02 383.121 1923.62 381.975 1932.71 386.767C1940.76 389.091 1946.78 397.132 1948.45 407.338C1949.93 417.101 1947.4 428.752 1938.68 439.15C1910.23 457.925 1927.96 514.912 1923.25 533.572C1916.07 544.666 1923.34 554.283 1917.66 569.625C1911.97 584.966 1895.26 582.693 1895.25 590.032C1897.14 603.318 1895.61 611.394 1891.41 615.914C1886.76 631.396 1866.06 626.55 1847.49 612.779C1834.54 604.399 1822.69 597.964 1811.26 596.867C1801.71 590.794 1789.73 608.291 1777.62 610.874C1758.94 613.531 1758.09 598.335 1742.57 607.112C1734.33 611.377 1725.97 615.461 1717.34 619.621C1693.23 628.674 1678.77 620.794 1672.98 609.463C1657.67 605.521 1653.01 585.755 1657.8 567.06C1661.21 555.216 1668.02 543.927 1677.99 536.535C1700.05 520.147 1721.42 509.816 1727.26 479.128C1731.11 465.788 1707.61 449.011 1712.46 427.534C1715.13 411.682 1726.44 401.54 1727.51 388.712C1728.58 375.811 1732.45 366.121 1736.07 361.494Z" stroke="url(#paint10_radial_3673_5636)" stroke-width="3"/>
<path d="M1758.62 390.798C1761.41 377.928 1778.05 382.659 1782.18 393.418C1799.57 437.637 1818.77 435.98 1842.71 429.943C1848.52 430.928 1852.78 419.9 1861.93 416.495C1871.08 413.089 1876.82 419.323 1882.66 415.766C1892.83 410.401 1901.41 411.744 1907.12 416.965C1911.68 419.448 1915.02 425.583 1915.16 432.791C1915.21 439.777 1912.22 447.699 1904.33 454.181C1874.84 469.099 1898.3 529.322 1896.62 547.151C1893.28 555.706 1894.96 562.188 1889.44 570.124C1883.92 578.06 1872.15 575.786 1869.42 576.834C1867.26 580.49 1864.32 581.625 1860.33 581.492C1856.58 587.771 1843.58 583.516 1830.94 575.869C1821.12 570.917 1811.14 568.007 1801.23 570.279C1794.54 568.443 1786.38 578.671 1777.87 581.763C1765.79 585.104 1762.89 578.889 1752.94 584.129C1746.63 587.115 1740.52 589.485 1734.55 591.477C1715.87 595.653 1706.24 584.728 1704.68 572.397C1697.42 568.527 1695.78 556.775 1699.14 545.745C1701.82 538.139 1706.49 530.997 1713.01 526.151C1732.67 511.522 1747.68 502.883 1751.31 475.331C1753.42 465.501 1740.98 453.479 1742.71 439.109C1743.36 427.551 1748.33 418.849 1749.12 409.282C1749.89 400.063 1754.22 393.5 1758.62 390.798Z" stroke="url(#paint11_radial_3673_5636)" stroke-width="3"/>
<path d="M385.455 441.654C359.633 374.469 231.883 341.292 252.964 475.063C256.421 496.997 256.769 534.766 252.964 580.738C249.479 622.851 181.256 645.894 160.313 700.308C127.47 785.646 250.27 845.128 230.728 889.988C205.133 948.744 126.762 974.237 83.4129 1006.38C42.6044 1036.64 16.6106 1085.2 6.6299 1135.12C-10.8799 1222.7 20.8961 1314.48 108.429 1319.05C152.247 1321.33 210.038 1301.76 282.612 1248.87C315.061 1225.22 343.673 1205.73 369.103 1189.98C434.553 1149.41 416.957 1245.36 494.783 1248.87C539.129 1250.87 585.445 1168.05 620.507 1212.23C645.437 1243.64 674.047 1281.76 714.904 1320.95C786.655 1389.77 876.364 1399.9 889.053 1301.68C895.042 1255.31 883.869 1184.8 845.542 1084.92C821.014 1021.01 882.023 1023.26 889.053 941.353C896.082 859.446 838.601 821.673 880.211 787.773L881.045 787.094C912.761 761.258 946.588 733.703 965.061 680.777C980.974 635.187 979.454 590.033 965.061 555.337C949.658 518.204 919.511 493.05 880.211 492.157C840.779 491.262 792.133 514.793 739.919 575.16C705.494 614.961 682.181 522.35 620.507 531.817C558.832 541.284 550.26 630.642 513.314 604.725C449.134 559.704 415.698 520.34 385.455 441.654Z" stroke="url(#paint12_radial_3673_5636)" stroke-width="3"/>
<path d="M510.032 808.134C506.102 797.82 487.787 800.527 486.861 811.705C485.805 824.432 492.238 841.017 491.495 853.775C490.059 878.406 481.357 885.418 464.03 898.4C457.82 903.046 453.864 910.5 452.345 918.164C449.68 931.609 454.516 945.699 467.838 946.4C474.506 946.751 483.301 943.746 494.346 935.627C499.284 931.996 503.638 929.004 507.508 926.585C524.355 915.21 540.035 924.123 545.768 930.001C549.562 934.824 553.916 940.675 560.134 946.691C571.054 957.256 587.59 955.872 586.637 943.733C585.292 926.585 556.014 862.574 586.637 851.413C600.862 846.228 600.395 834.484 598.205 829.157C595.86 823.457 591.273 819.595 585.292 819.458C579.291 819.321 569.349 829.157 563.941 832.201C543.976 843.435 526.162 849.242 510.032 808.134Z" stroke="url(#paint13_radial_3673_5636)" stroke-width="3"/>
<path d="M274.327 504.331C255.617 382.552 372.359 412.909 396.033 474.501C425.017 549.8 457.061 585.09 517.272 625.037C551.135 648.48 559.283 566.89 615.755 558.022C672.227 549.154 693.801 633.194 725.397 596.989C773.449 542.078 818.128 521.017 854.22 522.346C890.077 523.398 917.568 546.67 931.457 580.837C944.426 612.788 945.496 654.252 930.371 695.964C910.629 745.546 882.121 776.408 853.168 801.642C815.35 833.032 867.297 867.704 860.412 942.273C853.526 1016.84 797.392 1014.59 819.212 1072.26C853.52 1162.59 863.29 1226.22 857.495 1267.96C845.689 1357.06 763.578 1347.51 697.68 1284.76C659.892 1248.96 633.121 1214.34 609.671 1186.27C577.418 1146.29 534.88 1221.92 494.082 1220.43C422.767 1217.59 438.326 1130.56 378.373 1167.61C354.834 1182.11 328.449 1199.9 298.621 1221.4C231.376 1269.46 178.354 1285.99 138.727 1282.7C59.1518 1278.2 30.3641 1194.35 46.4737 1114.36C55.7327 1068.64 79.615 1024.19 117.028 996.446C158.046 966.028 230.146 942.201 253.565 886.521C271.379 845.131 159.517 790.352 189.275 712.048C208.204 661.879 270.156 640.253 273.375 601.364C276.879 559.033 277 524.358 274.327 504.331Z" stroke="url(#paint14_radial_3673_5636)" stroke-width="3"/>
<path d="M296.64 534.831C280.33 425.445 385.894 452.882 407.385 508.677C435.068 580.335 465.672 611.436 521.828 646.181C552.557 667.072 560.27 593.518 611.457 585.279C662.644 577.04 682.448 652.234 711.168 619.743C754.988 570.469 795.635 551.947 828.333 553.704C860.696 554.912 885.49 576.223 897.844 607.312C909.371 636.412 909.99 674.049 895.673 711.747C874.854 757.357 852.139 791.395 826.23 815.742C792.262 844.519 838.597 875.975 831.866 942.962C825.135 1009.95 773.956 1007.7 793.037 1058.94C823.275 1139.43 831.628 1195.96 826.036 1232.95C815.13 1312.64 740.737 1303.7 680.789 1247.22C646.125 1214.94 621.232 1183.92 599.297 1159.29C569.898 1123.64 531.2 1191.82 494.009 1190.84C429.31 1188.7 442.81 1110.85 388.442 1144.28C366.828 1157.46 342.708 1173.5 315.545 1192.78C253.727 1235.85 205.55 1249.29 170.173 1245.01C98.6727 1240.59 72.9154 1164.96 87.6012 1092.82C96.125 1051.44 117.861 1011.24 151.824 986.111C190.452 957.523 256.174 935.442 277.383 883.025C293.444 845.241 192.683 795.345 219.312 724.334C236.2 678.577 291.791 658.44 294.739 622.903C297.937 584.354 298.527 552.885 296.64 534.831Z" stroke="url(#paint15_radial_3673_5636)" stroke-width="3"/>
<path d="M317.997 564.1C304.06 466.707 398.609 491.323 417.95 541.525C444.377 609.794 473.589 636.822 525.776 666.493C553.42 684.91 560.71 619.124 606.69 611.484C652.67 603.844 670.736 670.468 696.624 641.572C736.28 597.754 772.958 581.703 802.313 583.894C831.231 585.261 853.366 604.689 864.204 632.813C874.307 659.167 874.475 693.113 860.945 726.934C839.014 768.735 822.059 806.06 799.155 829.606C768.983 855.874 809.779 884.228 803.191 943.878C796.604 1003.53 750.302 1001.27 766.673 1046.28C792.886 1117.21 799.835 1166.85 794.437 1199.23C784.414 1269.79 717.625 1261.43 663.533 1211.02C631.939 1182.14 608.886 1154.61 588.431 1133.33C561.842 1101.89 526.925 1162.86 493.283 1162.39C435.1 1160.93 446.56 1091.99 397.693 1121.92C377.97 1133.83 356.079 1148.17 331.539 1165.3C275.052 1203.54 231.647 1213.95 200.465 1208.65C136.929 1204.3 114.162 1136.6 127.447 1072.06C135.249 1034.88 154.872 998.784 185.438 976.172C221.736 949.312 281.183 928.897 300.213 879.557C314.546 845.244 224.731 800.051 248.271 736.074C263.144 694.563 312.459 675.843 315.141 643.53C318.038 608.622 319.098 580.247 317.997 564.1Z" stroke="url(#paint16_radial_3673_5636)" stroke-width="3"/>
<path d="M340.3 593.368C328.763 507.972 412.128 529.767 429.285 574.373C454.408 639.26 482.177 662.212 530.304 686.806C554.813 702.747 561.667 644.732 602.359 637.691C643.052 630.649 659.346 688.699 682.357 663.401C717.778 625.041 750.422 611.462 776.382 614.087C801.804 615.615 821.241 633.158 830.544 658.317C839.204 681.925 838.921 712.181 826.201 742.123C803.197 780.117 792.033 820.741 772.175 843.489C745.853 867.246 781.036 892.499 774.604 944.808C768.171 997.118 726.828 994.857 740.46 1033.62C762.603 1095 768.133 1137.75 762.94 1165.51C753.818 1226.95 694.75 1219.17 646.611 1174.82C618.144 1149.34 596.97 1125.31 578.032 1107.37C554.299 1080.13 523.224 1133.91 493.192 1133.94C441.629 1133.17 451.029 1073.13 407.75 1099.56C389.953 1110.2 370.328 1122.84 348.455 1137.83C297.399 1171.23 258.843 1178.6 231.911 1172.3C176.453 1168.01 156.718 1108.25 168.578 1051.3C175.644 1018.31 193.12 986.326 220.233 966.235C254.137 941.101 307.203 922.352 324.023 876.086C336.601 845.243 257.892 804.753 278.302 747.812C291.134 710.547 334.085 693.243 336.496 664.154C339.087 632.889 340.615 607.606 340.3 593.368Z" stroke="url(#paint17_radial_3673_5636)" stroke-width="3"/>
<path d="M362.602 624.013C353.463 550.805 425.643 569.73 440.615 608.642C464.43 669.999 490.752 688.824 534.813 708.287C556.186 721.717 562.603 671.601 598.007 665.175C633.41 658.749 647.932 708.095 668.064 686.45C699.249 653.634 727.857 642.557 750.422 645.61C772.347 647.295 789.086 662.916 796.854 685.052C804.071 705.861 803.338 732.358 791.431 758.355C767.361 792.456 761.98 836.285 745.168 858.182C722.696 879.377 752.268 901.471 745.991 946.324C739.715 991.177 703.333 988.917 714.227 1021.35C732.3 1073.04 736.415 1108.81 731.426 1131.89C723.205 1184.06 671.861 1176.87 629.677 1138.7C604.338 1116.66 585.046 1096.18 567.627 1081.63C546.752 1058.66 519.521 1105.12 493.1 1105.66C448.157 1105.57 455.499 1054.57 417.809 1077.44C401.939 1086.79 384.583 1097.71 365.376 1110.51C319.756 1139 286.05 1143.32 263.369 1136.02C215.988 1131.81 199.284 1080.12 209.719 1030.89C216.049 1002.17 231.376 974.364 255.037 956.838C286.542 933.487 333.225 916.447 347.832 873.359C358.656 846.056 291.055 810.359 308.334 760.582C319.124 727.646 355.712 711.798 357.852 685.998C360.136 658.445 362.132 636.312 362.602 624.013Z" stroke="url(#paint18_radial_3673_5636)" stroke-width="3"/>
<path d="M383.937 653.281C377.177 592.076 438.322 608.179 451.14 641.494C473.698 699.475 498.627 714.22 538.715 728.601C556.996 739.554 562.989 697.212 593.177 691.384C623.366 685.557 636.145 726.325 653.441 708.278C680.455 680.923 705.086 672.32 724.302 675.809C742.776 677.654 756.851 691.392 763.101 710.562C768.891 728.625 767.705 751.429 756.586 773.546C731.4 803.84 731.792 850.981 717.99 872.083C699.322 890.768 723.343 909.759 717.21 947.268C711.077 984.777 679.581 982.513 687.758 1008.7C701.8 1050.83 704.507 1079.7 699.712 1098.16C692.376 1141.2 648.648 1134.59 612.332 1102.49C590.068 1083.85 572.618 1066.87 556.681 1055.67C538.621 1036.9 515.177 1076.15 492.311 1077.21C453.896 1077.8 459.194 1035.72 427.015 1055.08C413.04 1063.17 397.915 1072.38 381.336 1083.03C341.055 1106.69 312.129 1107.96 293.651 1099.65C254.25 1095.5 240.542 1051.76 249.574 1010.12C255.181 985.602 268.391 961.904 288.648 946.898C317.821 925.272 358.218 909.897 370.644 869.881C379.736 846.049 323.101 815.056 337.286 772.317C346.057 743.628 376.357 729.195 378.23 706.62C380.213 682.709 382.68 663.672 383.937 653.281Z" stroke="url(#paint19_radial_3673_5636)" stroke-width="3"/>
<path d="M406.204 682.547C401.841 633.354 451.788 646.633 462.419 674.349C483.658 728.966 507.128 739.626 543.134 748.918C558.276 757.391 563.829 722.827 588.722 717.598C613.615 712.368 624.618 744.55 639.032 730.104C661.803 708.215 682.393 702.089 698.209 706.017C713.183 708.024 724.558 719.878 729.272 736.08C733.62 751.396 731.986 770.507 721.684 788.742C695.451 815.229 701.612 865.709 690.857 886.02C676.042 902.196 694.45 918.082 688.477 948.242C682.504 978.402 655.976 976.132 661.417 996.062C671.39 1028.62 672.682 1050.59 668.094 1064.42C661.662 1098.32 625.668 1092.3 595.314 1066.27C576.185 1051.03 560.623 1037.54 546.212 1029.7C531.014 1015.15 511.419 1047.19 492.169 1048.75C460.384 1050.04 463.625 1016.87 437.041 1032.72C424.998 1039.55 412.146 1047.06 398.238 1055.56C363.404 1074.37 339.334 1072.59 325.108 1063.27C293.789 1059.18 283.115 1023.38 290.719 989.353C295.588 969.031 306.647 949.443 323.447 936.96C350.208 917.055 384.212 903.345 394.423 866.393C401.759 846.032 356.241 819.745 367.294 784.047C374.023 759.606 397.955 746.587 399.557 727.236C401.233 706.97 404.164 691.028 406.204 682.547Z" stroke="url(#paint20_radial_3673_5636)" stroke-width="3"/>
<path d="M427.853 711.811C425.867 674.646 464.887 685.098 473.388 707.21C493.433 758.48 515.58 765.047 547.71 769.235C559.795 775.225 564.94 748.449 584.673 743.817C604.406 739.185 613.694 762.767 625.304 751.928C643.958 735.512 660.618 731.868 673.12 736.238C684.675 738.409 693.41 748.378 696.614 761.612C699.54 774.179 697.447 789.594 687.903 803.942C660.462 826.624 672.445 880.481 664.681 900.011C653.641 913.677 666.53 926.457 660.681 949.257C654.833 972.058 633.128 969.781 635.857 983.445C641.811 1006.42 641.692 1021.47 637.285 1030.67C631.721 1055.41 603.263 1049.97 578.707 1030.02C562.607 1018.19 548.844 1008.2 535.876 1003.73C523.457 993.389 507.604 1018.21 491.865 1020.29C466.536 1022.27 467.734 998.032 446.602 1010.37L446.019 1010.69C436.016 1016.15 425.556 1021.86 414.458 1028.09C384.878 1042.05 365.533 1037.21 355.485 1026.86C332.083 1022.83 324.385 994.991 330.604 968.569C334.761 952.45 343.73 936.978 357.164 927.018C381.668 908.831 409.466 896.783 417.518 862.887C423.137 845.999 388.492 824.418 396.471 795.767C401.193 775.576 418.884 763.969 420.223 747.844C421.602 731.223 425.016 718.379 427.853 711.811Z" stroke="url(#paint21_radial_3673_5636)" stroke-width="3"/>
<path d="M450.067 742.494C450.475 717.521 478.263 725.1 484.568 741.51C503.268 789.201 523.927 791.647 551.938 790.716C560.871 794.196 565.57 775.325 579.989 771.311C594.408 767.297 601.91 782.177 610.627 774.992C625.018 764.121 637.621 762.975 646.712 767.767C654.757 770.091 660.784 778.132 662.451 788.338C663.933 798.101 661.396 809.752 652.681 820.15C624.234 838.925 641.959 895.912 637.247 914.572C630.068 925.666 637.336 935.283 631.655 950.625C625.974 965.966 609.26 963.693 609.254 971.032C611.138 984.318 609.608 992.394 605.414 996.914C600.76 1012.4 580.062 1007.55 561.493 993.779C548.544 985.399 536.687 978.964 525.259 977.867C515.715 971.794 503.727 989.291 491.62 991.874C472.945 994.531 472.087 979.335 456.571 988.112C448.334 992.377 439.966 996.461 431.336 1000.62C407.234 1009.67 392.765 1001.79 386.975 990.463C371.674 986.521 367.014 966.755 371.799 948.06C375.214 936.216 382.022 924.927 391.986 917.535C414.049 901.147 435.425 890.816 441.256 860.128C445.114 846.788 421.613 830.011 426.456 808.534C429.133 792.682 440.443 782.54 441.508 769.712C442.58 756.811 446.452 747.121 450.067 742.494Z" stroke="url(#paint22_radial_3673_5636)" stroke-width="3"/>
<path d="M472.616 771.798C475.409 758.928 492.054 763.659 496.181 774.418C513.566 818.637 532.769 816.98 556.715 810.943C562.523 811.928 566.784 800.9 575.933 797.495C585.082 794.089 590.816 800.323 596.664 796.766C606.832 791.401 615.412 792.744 621.12 797.965C625.682 800.448 629.022 806.583 629.161 813.791C629.208 820.777 626.225 828.699 618.325 835.181C588.841 850.099 612.302 910.322 610.622 928.151C607.276 936.706 608.959 943.188 603.439 951.124C597.918 959.06 586.15 956.786 583.422 957.834C581.258 961.49 578.321 962.625 574.334 962.492C570.58 968.771 557.578 964.516 544.944 956.869C535.116 951.917 525.139 949.007 515.231 951.279C508.536 949.443 500.379 959.671 491.871 962.763C479.794 966.104 476.89 959.889 466.943 965.129C460.629 968.115 454.523 970.485 448.551 972.477C429.873 976.653 420.238 965.728 418.678 953.397C411.42 949.527 409.778 937.775 413.142 926.745C415.822 919.139 420.489 911.997 427.012 907.151C446.672 892.522 461.684 883.883 465.311 856.331C467.423 846.501 454.983 834.479 456.709 820.109C457.355 808.551 462.329 799.849 463.124 790.282C463.89 781.063 468.224 774.5 472.616 771.798Z" stroke="url(#paint23_radial_3673_5636)" stroke-width="3"/>
<defs>
<radialGradient id="paint0_radial_3673_5636" cx="0" cy="0" r="1" gradientUnits="userSpaceOnUse" gradientTransform="translate(1775.22 497.5) rotate(90) scale(495.5 487.217)">
<stop stop-color="#FFFE54" stop-opacity="0.3"/>
<stop offset="1" stop-color="white" stop-opacity="0"/>
</radialGradient>
<radialGradient id="paint1_radial_3673_5636" cx="0" cy="0" r="1" gradientUnits="userSpaceOnUse" gradientTransform="translate(1811.5 496.747) rotate(90) scale(76.057 73.86)">
<stop stop-color="#FFFE54" stop-opacity="0.3"/>
<stop offset="1" stop-color="white" stop-opacity="0"/>
</radialGradient>
<radialGradient id="paint2_radial_3673_5636" cx="0" cy="0" r="1" gradientUnits="userSpaceOnUse" gradientTransform="translate(1777.81 495.994) rotate(90) scale(456.342 449.639)">
<stop stop-color="#FFFE54" stop-opacity="0.3"/>
<stop offset="1" stop-color="white" stop-opacity="0"/>
</radialGradient>
<radialGradient id="paint3_radial_3673_5636" cx="0" cy="0" r="1" gradientUnits="userSpaceOnUse" gradientTransform="translate(1781.05 494.488) rotate(90) scale(415.678 411.413)">
<stop stop-color="#FFFE54" stop-opacity="0.3"/>
<stop offset="1" stop-color="white" stop-opacity="0"/>
</radialGradient>
<radialGradient id="paint4_radial_3673_5636" cx="0" cy="0" r="1" gradientUnits="userSpaceOnUse" gradientTransform="translate(1783.64 492.982) rotate(90) scale(376.52 373.835)">
<stop stop-color="#FFFE54" stop-opacity="0.3"/>
<stop offset="1" stop-color="white" stop-opacity="0"/>
</radialGradient>
<radialGradient id="paint5_radial_3673_5636" cx="0" cy="0" r="1" gradientUnits="userSpaceOnUse" gradientTransform="translate(1786.87 491.475) rotate(90) scale(337.362 335.609)">
<stop stop-color="#FFFE54" stop-opacity="0.3"/>
<stop offset="1" stop-color="white" stop-opacity="0"/>
</radialGradient>
<radialGradient id="paint6_radial_3673_5636" cx="0" cy="0" r="1" gradientUnits="userSpaceOnUse" gradientTransform="translate(1790.12 490.723) rotate(90) scale(297.451 297.384)">
<stop stop-color="#FFFE54" stop-opacity="0.3"/>
<stop offset="1" stop-color="white" stop-opacity="0"/>
</radialGradient>
<radialGradient id="paint7_radial_3673_5636" cx="0" cy="0" r="1" gradientUnits="userSpaceOnUse" gradientTransform="translate(1792.71 489.216) rotate(90) scale(258.293 259.806)">
<stop stop-color="#FFFE54" stop-opacity="0.3"/>
<stop offset="1" stop-color="white" stop-opacity="0"/>
</radialGradient>
<radialGradient id="paint8_radial_3673_5636" cx="0" cy="0" r="1" gradientUnits="userSpaceOnUse" gradientTransform="translate(1795.95 487.711) rotate(90) scale(219.134 221.58)">
<stop stop-color="#FFFE54" stop-opacity="0.3"/>
<stop offset="1" stop-color="white" stop-opacity="0"/>
</radialGradient>
<radialGradient id="paint9_radial_3673_5636" cx="0" cy="0" r="1" gradientUnits="userSpaceOnUse" gradientTransform="translate(1799.19 486.204) rotate(90) scale(179.976 184.65)">
<stop stop-color="#FFFE54" stop-opacity="0.3"/>
<stop offset="1" stop-color="white" stop-opacity="0"/>
</radialGradient>
<radialGradient id="paint10_radial_3673_5636" cx="0" cy="0" r="1" gradientUnits="userSpaceOnUse" gradientTransform="translate(1802.42 485.452) rotate(90) scale(140.065 146.424)">
<stop stop-color="#FFFE54" stop-opacity="0.3"/>
<stop offset="1" stop-color="white" stop-opacity="0"/>
</radialGradient>
<radialGradient id="paint11_radial_3673_5636" cx="0" cy="0" r="1" gradientUnits="userSpaceOnUse" gradientTransform="translate(1806.31 487.711) rotate(90) scale(104.672 108.846)">
<stop stop-color="#FFFE54" stop-opacity="0.3"/>
<stop offset="1" stop-color="white" stop-opacity="0"/>
</radialGradient>
<radialGradient id="paint12_radial_3673_5636" cx="0" cy="0" r="1" gradientUnits="userSpaceOnUse" gradientTransform="translate(489.217 878.5) rotate(90) scale(495.5 487.217)">
<stop stop-color="#FFFE54" stop-opacity="0.3"/>
<stop offset="1" stop-color="white" stop-opacity="0"/>
</radialGradient>
<radialGradient id="paint13_radial_3673_5636" cx="0" cy="0" r="1" gradientUnits="userSpaceOnUse" gradientTransform="translate(525.501 877.747) rotate(90) scale(76.057 73.86)">
<stop stop-color="#FFFE54" stop-opacity="0.3"/>
<stop offset="1" stop-color="white" stop-opacity="0"/>
</radialGradient>
<radialGradient id="paint14_radial_3673_5636" cx="0" cy="0" r="1" gradientUnits="userSpaceOnUse" gradientTransform="translate(491.811 876.994) rotate(90) scale(456.342 449.639)">
<stop stop-color="#FFFE54" stop-opacity="0.3"/>
<stop offset="1" stop-color="white" stop-opacity="0"/>
</radialGradient>
<radialGradient id="paint15_radial_3673_5636" cx="0" cy="0" r="1" gradientUnits="userSpaceOnUse" gradientTransform="translate(495.046 875.488) rotate(90) scale(415.678 411.413)">
<stop stop-color="#FFFE54" stop-opacity="0.3"/>
<stop offset="1" stop-color="white" stop-opacity="0"/>
</radialGradient>
<radialGradient id="paint16_radial_3673_5636" cx="0" cy="0" r="1" gradientUnits="userSpaceOnUse" gradientTransform="translate(497.64 873.982) rotate(90) scale(376.52 373.835)">
<stop stop-color="#FFFE54" stop-opacity="0.3"/>
<stop offset="1" stop-color="white" stop-opacity="0"/>
</radialGradient>
<radialGradient id="paint17_radial_3673_5636" cx="0" cy="0" r="1" gradientUnits="userSpaceOnUse" gradientTransform="translate(500.875 872.475) rotate(90) scale(337.362 335.609)">
<stop stop-color="#FFFE54" stop-opacity="0.3"/>
<stop offset="1" stop-color="white" stop-opacity="0"/>
</radialGradient>
<radialGradient id="paint18_radial_3673_5636" cx="0" cy="0" r="1" gradientUnits="userSpaceOnUse" gradientTransform="translate(504.118 871.723) rotate(90) scale(297.451 297.384)">
<stop stop-color="#FFFE54" stop-opacity="0.3"/>
<stop offset="1" stop-color="white" stop-opacity="0"/>
</radialGradient>
<radialGradient id="paint19_radial_3673_5636" cx="0" cy="0" r="1" gradientUnits="userSpaceOnUse" gradientTransform="translate(506.712 870.216) rotate(90) scale(258.293 259.806)">
<stop stop-color="#FFFE54" stop-opacity="0.3"/>
<stop offset="1" stop-color="white" stop-opacity="0"/>
</radialGradient>
<radialGradient id="paint20_radial_3673_5636" cx="0" cy="0" r="1" gradientUnits="userSpaceOnUse" gradientTransform="translate(509.947 868.711) rotate(90) scale(219.134 221.58)">
<stop stop-color="#FFFE54" stop-opacity="0.3"/>
<stop offset="1" stop-color="white" stop-opacity="0"/>
</radialGradient>
<radialGradient id="paint21_radial_3673_5636" cx="0" cy="0" r="1" gradientUnits="userSpaceOnUse" gradientTransform="translate(513.189 867.204) rotate(90) scale(179.976 184.65)">
<stop stop-color="#FFFE54" stop-opacity="0.3"/>
<stop offset="1" stop-color="white" stop-opacity="0"/>
</radialGradient>
<radialGradient id="paint22_radial_3673_5636" cx="0" cy="0" r="1" gradientUnits="userSpaceOnUse" gradientTransform="translate(516.424 866.452) rotate(90) scale(140.065 146.424)">
<stop stop-color="#FFFE54" stop-opacity="0.3"/>
<stop offset="1" stop-color="white" stop-opacity="0"/>
</radialGradient>
<radialGradient id="paint23_radial_3673_5636" cx="0" cy="0" r="1" gradientUnits="userSpaceOnUse" gradientTransform="translate(520.315 868.711) rotate(90) scale(104.672 108.846)">
<stop stop-color="#FFFE54" stop-opacity="0.3"/>
<stop offset="1" stop-color="white" stop-opacity="0"/>
</radialGradient>
</defs>
</svg>
