<svg width="50" height="50" viewBox="0 0 50 50" fill="none" xmlns="http://www.w3.org/2000/svg">
<circle cx="25" cy="25" r="25" fill="#63CA3F"/>
<path d="M15.3318 28.8457C14.71 29.6905 14.4206 30.7346 14.5188 31.779C14.617 32.8234 15.0959 33.7952 15.8644 34.5093C16.6328 35.2234 17.6371 35.6299 18.6859 35.6514C19.7347 35.6728 20.7548 35.3078 21.5518 34.6257C20.0659 34.37 18.6865 33.6873 17.582 32.6609C16.4775 31.6346 15.6957 30.3089 15.3318 28.8457V28.8457Z" fill="white"/>
<path d="M18.1211 22.6865C17.0285 23.8952 16.438 25.4751 16.47 27.1042C16.502 28.7332 17.1541 30.2887 18.2935 31.4535C19.4328 32.6183 20.9734 33.3047 22.6014 33.3728C24.2293 33.4409 25.8219 32.8855 27.0545 31.8199C24.6891 31.7016 22.4554 30.6955 20.7994 29.0024C19.1434 27.3093 18.187 25.0539 18.1211 22.6865V22.6865Z" fill="white"/>
<path d="M27.5175 14.333C29.1147 14.333 30.6761 14.8064 32.0044 15.6934C33.3328 16.5803 34.3684 17.8411 34.9805 19.3163C35.5927 20.7916 35.7538 22.4152 35.4437 23.982C35.1335 25.5488 34.366 26.9886 33.238 28.1194C32.11 29.2502 30.6721 30.0213 29.1061 30.3353C27.54 30.6493 25.916 30.4922 24.4393 29.8837C22.9625 29.2752 21.6992 28.2427 20.809 26.9166C19.9187 25.5904 19.4415 24.0302 19.4375 22.433C19.4349 21.3702 19.6419 20.3174 20.0468 19.3348C20.4517 18.3522 21.0465 17.4591 21.797 16.7067C22.5476 15.9542 23.4392 15.3573 24.4208 14.95C25.4024 14.5427 26.4548 14.333 27.5175 14.333" fill="white"/>
</svg>
