<svg width="50" height="50" viewBox="0 0 50 50" fill="none" xmlns="http://www.w3.org/2000/svg">
<circle cx="25" cy="25" r="25" fill="#F0CD4F"/>
<g clip-path="url(#clip0_3680_810)">
<path d="M36.9766 35.4312C36.9766 35.6185 36.8712 35.7902 36.6605 35.9463C36.4498 36.1024 36.1259 36.2312 35.6888 36.3327C35.2517 36.4341 34.8029 36.5278 34.3424 36.6137C33.882 36.6995 33.2927 36.7659 32.5746 36.8127C31.8566 36.8595 31.2322 36.8946 30.7015 36.918C30.1707 36.9415 29.4878 36.961 28.6527 36.9766C27.8176 36.9922 27.1854 37 26.7561 37H23.2205L21.3239 36.9766L19.2751 36.918L17.402 36.8127L15.6341 36.6137L14.2878 36.3327L13.3161 35.9463L13 35.4312C13.0312 34.0576 13.8898 32.8439 15.5756 31.7902C17.2615 30.7366 19.4 30.038 21.9912 29.6946V28.922C21.1795 28.5629 20.4771 28.0556 19.8839 27.4C19.2907 26.7444 18.8224 25.9756 18.479 25.0937C18.1356 24.2117 17.8859 23.2673 17.7298 22.2605C17.5737 21.2537 17.4956 20.1649 17.4956 18.9941C17.4956 17.9951 17.6907 17.1054 18.081 16.3249C18.4712 15.5444 19.0098 14.9161 19.6966 14.44C20.3834 13.9639 21.1717 13.6049 22.0615 13.3629C22.9512 13.121 23.9268 13 24.9883 13C26.0498 13 27.0254 13.121 27.9151 13.3629C28.8049 13.6049 29.5932 13.9639 30.28 14.44C30.9668 14.9161 31.5054 15.5444 31.8956 16.3249C32.2859 17.1054 32.481 17.9951 32.481 18.9941C32.481 24.4576 30.9824 27.7824 27.9854 28.9688V29.6946C30.5766 30.038 32.7151 30.7366 34.401 31.7902C36.0868 32.8439 36.9454 34.0576 36.9766 35.4312Z" fill="white"/>
</g>
<defs>
<clipPath id="clip0_3680_810">
<rect width="23.9766" height="24" fill="white" transform="translate(13 13)"/>
</clipPath>
</defs>
</svg>
