<svg width="50" height="50" viewBox="0 0 50 50" fill="none" xmlns="http://www.w3.org/2000/svg">
<circle cx="25" cy="25" r="25" fill="#5180F8"/>
<path d="M15.88 20.88L17.42 22.42C17.15 23.23 17 24.1 17 25C17 29.41 20.59 33 25 33C29.41 33 33 29.41 33 25C33 20.59 29.41 17 25 17C24.1 17 23.23 17.15 22.42 17.42L20.89 15.89C22.15 15.32 23.54 15 25 15C30.52 15 35 19.48 35 25C35 30.52 30.52 35 25 35C19.48 35 15 30.52 15 25C15 23.53 15.32 22.14 15.88 20.88ZM19 25C19 21.69 21.69 19 25 19C28.31 19 31 21.69 31 25C31 28.31 28.31 31 25 31C21.69 31 19 28.31 19 25ZM20 18.5C20 19.33 19.33 20 18.5 20C17.67 20 17 19.33 17 18.5C17 17.67 17.67 17 18.5 17C19.33 17 20 17.67 20 18.5Z" fill="white"/>
</svg>
