<svg width="126" height="24" viewBox="0 0 126 24" fill="none" xmlns="http://www.w3.org/2000/svg">
<path d="M0.84 11.6C0.84 9.952 1.208 8.48 1.944 7.184C2.696 5.872 3.712 4.856 4.992 4.136C6.288 3.4 7.736 3.032 9.336 3.032C11.208 3.032 12.848 3.512 14.256 4.472C15.664 5.432 16.648 6.76 17.208 8.456H13.344C12.96 7.656 12.416 7.056 11.712 6.656C11.024 6.256 10.224 6.056 9.312 6.056C8.336 6.056 7.464 6.288 6.696 6.752C5.944 7.2 5.352 7.84 4.92 8.672C4.504 9.504 4.296 10.48 4.296 11.6C4.296 12.704 4.504 13.68 4.92 14.528C5.352 15.36 5.944 16.008 6.696 16.472C7.464 16.92 8.336 17.144 9.312 17.144C10.224 17.144 11.024 16.944 11.712 16.544C12.416 16.128 12.96 15.52 13.344 14.72H17.208C16.648 16.432 15.664 17.768 14.256 18.728C12.864 19.672 11.224 20.144 9.336 20.144C7.736 20.144 6.288 19.784 4.992 19.064C3.712 18.328 2.696 17.312 1.944 16.016C1.208 14.72 0.84 13.248 0.84 11.6ZM25.9819 20.216C24.7019 20.216 23.5499 19.936 22.5259 19.376C21.5019 18.8 20.6939 17.992 20.1019 16.952C19.5259 15.912 19.2379 14.712 19.2379 13.352C19.2379 11.992 19.5339 10.792 20.1259 9.752C20.7339 8.712 21.5579 7.912 22.5979 7.352C23.6379 6.776 24.7979 6.488 26.0779 6.488C27.3579 6.488 28.5179 6.776 29.5579 7.352C30.5979 7.912 31.4139 8.712 32.0059 9.752C32.6139 10.792 32.9179 11.992 32.9179 13.352C32.9179 14.712 32.6059 15.912 31.9819 16.952C31.3739 17.992 30.5419 18.8 29.4859 19.376C28.4459 19.936 27.2779 20.216 25.9819 20.216ZM25.9819 17.288C26.5899 17.288 27.1579 17.144 27.6859 16.856C28.2299 16.552 28.6619 16.104 28.9819 15.512C29.3019 14.92 29.4619 14.2 29.4619 13.352C29.4619 12.088 29.1259 11.12 28.4539 10.448C27.7979 9.76 26.9899 9.416 26.0299 9.416C25.0699 9.416 24.2619 9.76 23.6059 10.448C22.9659 11.12 22.6459 12.088 22.6459 13.352C22.6459 14.616 22.9579 15.592 23.5819 16.28C24.2219 16.952 25.0219 17.288 25.9819 17.288ZM40.4706 20.216C39.3826 20.216 38.4066 20.024 37.5426 19.64C36.6786 19.24 35.9906 18.704 35.4786 18.032C34.9826 17.36 34.7106 16.616 34.6626 15.8H38.0466C38.1106 16.312 38.3586 16.736 38.7906 17.072C39.2386 17.408 39.7906 17.576 40.4466 17.576C41.0866 17.576 41.5826 17.448 41.9346 17.192C42.3026 16.936 42.4866 16.608 42.4866 16.208C42.4866 15.776 42.2626 15.456 41.8146 15.248C41.3826 15.024 40.6866 14.784 39.7266 14.528C38.7346 14.288 37.9186 14.04 37.2786 13.784C36.6546 13.528 36.1106 13.136 35.6466 12.608C35.1986 12.08 34.9746 11.368 34.9746 10.472C34.9746 9.736 35.1826 9.064 35.5986 8.456C36.0306 7.848 36.6386 7.368 37.4226 7.016C38.2226 6.664 39.1586 6.488 40.2306 6.488C41.8146 6.488 43.0786 6.888 44.0226 7.688C44.9666 8.472 45.4866 9.536 45.5826 10.88H42.3666C42.3186 10.352 42.0946 9.936 41.6946 9.632C41.3106 9.312 40.7906 9.152 40.1346 9.152C39.5266 9.152 39.0546 9.264 38.7186 9.488C38.3986 9.712 38.2386 10.024 38.2386 10.424C38.2386 10.872 38.4626 11.216 38.9106 11.456C39.3586 11.68 40.0546 11.912 40.9986 12.152C41.9586 12.392 42.7506 12.64 43.3746 12.896C43.9986 13.152 44.5346 13.552 44.9826 14.096C45.4466 14.624 45.6866 15.328 45.7026 16.208C45.7026 16.976 45.4866 17.664 45.0546 18.272C44.6386 18.88 44.0306 19.36 43.2306 19.712C42.4466 20.048 41.5266 20.216 40.4706 20.216ZM64.9727 6.512C66.6047 6.512 67.9167 7.016 68.9087 8.024C69.9167 9.016 70.4207 10.408 70.4207 12.2V20H67.0607V12.656C67.0607 11.616 66.7967 10.824 66.2687 10.28C65.7407 9.72 65.0207 9.44 64.1087 9.44C63.1967 9.44 62.4687 9.72 61.9247 10.28C61.3967 10.824 61.1327 11.616 61.1327 12.656V20H57.7727V12.656C57.7727 11.616 57.5087 10.824 56.9807 10.28C56.4527 9.72 55.7327 9.44 54.8207 9.44C53.8927 9.44 53.1567 9.72 52.6127 10.28C52.0847 10.824 51.8207 11.616 51.8207 12.656V20H48.4607V6.704H51.8207V8.312C52.2527 7.752 52.8047 7.312 53.4767 6.992C54.1647 6.672 54.9167 6.512 55.7327 6.512C56.7727 6.512 57.7007 6.736 58.5167 7.184C59.3327 7.616 59.9647 8.24 60.4127 9.056C60.8447 8.288 61.4687 7.672 62.2847 7.208C63.1167 6.744 64.0127 6.512 64.9727 6.512ZM75.3131 5.12C74.7211 5.12 74.2251 4.936 73.8251 4.568C73.4411 4.184 73.2491 3.712 73.2491 3.152C73.2491 2.592 73.4411 2.128 73.8251 1.76C74.2251 1.376 74.7211 1.184 75.3131 1.184C75.9051 1.184 76.3931 1.376 76.7771 1.76C77.1771 2.128 77.3771 2.592 77.3771 3.152C77.3771 3.712 77.1771 4.184 76.7771 4.568C76.3931 4.936 75.9051 5.12 75.3131 5.12ZM76.9691 6.704V20H73.6091V6.704H76.9691ZM79.4248 13.352C79.4248 11.976 79.7048 10.776 80.2648 9.752C80.8248 8.712 81.6008 7.912 82.5928 7.352C83.5848 6.776 84.7208 6.488 86.0008 6.488C87.6488 6.488 89.0088 6.904 90.0808 7.736C91.1688 8.552 91.8968 9.704 92.2648 11.192H88.6408C88.4488 10.616 88.1208 10.168 87.6568 9.848C87.2088 9.512 86.6488 9.344 85.9768 9.344C85.0168 9.344 84.2568 9.696 83.6968 10.4C83.1368 11.088 82.8568 12.072 82.8568 13.352C82.8568 14.616 83.1368 15.6 83.6968 16.304C84.2568 16.992 85.0168 17.336 85.9768 17.336C87.3368 17.336 88.2248 16.728 88.6408 15.512H92.2648C91.8968 16.952 91.1688 18.096 90.0808 18.944C88.9928 19.792 87.6328 20.216 86.0008 20.216C84.7208 20.216 83.5848 19.936 82.5928 19.376C81.6008 18.8 80.8248 18 80.2648 16.976C79.7048 15.936 79.4248 14.728 79.4248 13.352Z" fill="white"/>
<path d="M126 11.9914C121.292 12.4191 118.588 12.8125 116.927 14.1126C114.976 15.6351 114.514 18.4234 114 24C113.469 18.2181 112.99 15.4469 110.85 13.9587C109.19 12.7954 106.502 12.4191 102 12.0086C106.69 11.5809 109.412 11.1875 111.056 9.90449C113.024 8.36493 113.486 5.59373 114 0C114.479 5.14897 114.907 7.90306 116.499 9.49394C118.091 11.0848 120.864 11.5296 126 11.9914Z" fill="#FFFE54"/>
</svg>
