<svg width="50" height="50" viewBox="0 0 50 50" fill="none" xmlns="http://www.w3.org/2000/svg">
<circle cx="25" cy="25" r="25" fill="#9B51F8"/>
<path d="M22.4995 15C24.1085 14.9999 25.6749 15.5171 26.9675 16.4752C28.2602 17.4333 29.2106 18.7816 29.6785 20.321C30.9178 20.6978 32.0384 21.3891 32.9312 22.3276C33.8239 23.2661 34.4584 24.4198 34.7727 25.6764C35.0871 26.933 35.0707 28.2495 34.7251 29.4979C34.3795 30.7462 33.7165 31.8838 32.8006 32.7997C31.8847 33.7157 30.7472 34.3789 29.4989 34.7246C28.2506 35.0704 26.9341 35.0869 25.6775 34.7727C24.4208 34.4584 23.2671 33.8241 22.3284 32.9314C21.3898 32.0388 20.6984 30.9183 20.3215 29.679C18.5989 29.1581 17.121 28.0352 16.1575 26.5152C15.1941 24.9952 14.8093 23.1794 15.0734 21.3992C15.3376 19.6191 16.233 17.9932 17.5963 16.8185C18.9596 15.6437 20.6999 14.9983 22.4995 15V15ZM29.9975 22.599L29.9995 22.5C29.9997 24.4719 29.2233 26.3646 27.8383 27.7683C26.4533 29.1719 24.5713 29.9737 22.5995 30C22.9941 30.7727 23.5658 31.441 24.2681 31.9505C24.9703 32.4599 25.7831 32.796 26.64 32.9313C27.497 33.0666 28.3738 32.9973 29.1988 32.7289C30.0239 32.4606 30.7737 32.0009 31.3871 31.3874C32.0005 30.7739 32.4601 30.024 32.7283 29.1989C32.9966 28.3739 33.0658 27.4971 32.9304 26.6401C32.795 25.7832 32.4587 24.9705 31.9492 24.2683C31.4396 23.5661 30.7712 22.9945 29.9985 22.6L29.9975 22.599ZM22.4995 17C21.2639 16.9996 20.064 17.4152 19.0935 18.18C18.1229 18.9448 17.4382 20.0141 17.1496 21.2156C16.8611 22.4171 16.9855 23.6808 17.5029 24.8029C18.0203 25.925 18.9004 26.8402 20.0015 27.401L19.9995 27.5C19.9993 25.5281 20.7758 23.6354 22.1607 22.2317C23.5457 20.8281 25.4278 20.0263 27.3995 20C26.9389 19.0967 26.2374 18.3383 25.3727 17.8089C24.5079 17.2794 23.5135 16.9995 22.4995 17V17Z" fill="white"/>
</svg>
