<svg width="24" height="24" viewBox="0 0 24 24" fill="none" xmlns="http://www.w3.org/2000/svg">
<path d="M17.998 7.05C17.998 6.78478 17.8926 6.53043 17.7051 6.34289C17.5176 6.15536 17.2632 6.05 16.998 6.05L8.99799 6C8.73277 6 8.47842 6.10536 8.29088 6.29289C8.10334 6.48043 7.99799 6.73478 7.99799 7C7.99799 7.26522 8.10334 7.51957 8.29088 7.70711C8.47842 7.89464 8.73277 8 8.99799 8H14.558L6.28799 16.29C6.19426 16.383 6.11986 16.4936 6.06909 16.6154C6.01833 16.7373 5.99219 16.868 5.99219 17C5.99219 17.132 6.01833 17.2627 6.06909 17.3846C6.11986 17.5064 6.19426 17.617 6.28799 17.71C6.38095 17.8037 6.49155 17.8781 6.61341 17.9289C6.73527 17.9797 6.86597 18.0058 6.99799 18.0058C7.13 18.0058 7.2607 17.9797 7.38256 17.9289C7.50442 17.8781 7.61502 17.8037 7.70799 17.71L15.998 9.42V15C15.998 15.2652 16.1033 15.5196 16.2909 15.7071C16.4784 15.8946 16.7328 16 16.998 16C17.2632 16 17.5176 15.8946 17.7051 15.7071C17.8926 15.5196 17.998 15.2652 17.998 15V7.05Z" fill="#1B1A1F"/>
</svg>
